<?xml version="1.0" encoding="utf-8"?>
<!-- Generator: Adobe Illustrator 19.0.0, SVG Export Plug-In . SVG Version: 6.00 Build 0)  -->
<svg version="1.1" id="Layer_1" xmlns="http://www.w3.org/2000/svg" xmlns:xlink="http://www.w3.org/1999/xlink" x="0px" y="0px"
	 viewBox="0 0 84.3 84.3" style="enable-background:new 0 0 84.3 84.3;" xml:space="preserve">
<style type="text/css">
	.st0{fill:#4E4E50;}
</style>
<g>
	<path class="st0" d="M0,0v84.3h84.3V0H0z M76.6,76.6H7.7V7.7h68.9V76.6z"/>
	<g id="mLnCv4.tif">
		<g>
			<path class="st0" d="M65.4,23.1c-0.3,0.4-0.8,0.8-1.1,1.1C57,31.2,49.7,38.1,42.4,45c-0.2,0.2-0.3,0.2-0.5,0
				c-7.6-7.2-15.2-14.4-22.8-21.6c-0.1-0.1-0.2-0.2-0.3-0.3C34.3,23.1,49.9,23.1,65.4,23.1z"/>
			<path class="st0" d="M14.9,27.2c1.5,1.4,2.9,2.8,4.4,4.1c3.7,3.5,7.5,7.1,11.2,10.6c0.2,0.2,0.2,0.3,0,0.5
				c-5.1,5.3-10.3,10.5-15.4,15.8c-0.1,0.1-0.2,0.1-0.2,0.2C14.9,48,14.9,37.6,14.9,27.2z"/>
			<path class="st0" d="M69.4,58.4c-1.1-1.2-2.2-2.3-3.4-3.5c-4.1-4.2-8.2-8.4-12.3-12.7c-0.2-0.2-0.2-0.2,0-0.4
				C59,37,64.2,32.1,69.4,27.2C69.4,37.6,69.4,48,69.4,58.4z"/>
			<path class="st0" d="M18,61.2c0.1-0.1,0.2-0.2,0.2-0.2c5.1-5.2,10.3-10.5,15.4-15.7c0.2-0.2,0.3-0.2,0.5,0
				c2.6,2.5,5.2,4.9,7.8,7.4c0.2,0.2,0.3,0.2,0.5,0c2.7-2.5,5.3-5,8-7.6c0.2-0.2,0.3-0.2,0.5,0C55.9,50.4,61,55.7,66.1,61
				c0.1,0.1,0.2,0.1,0.2,0.3C50.2,61.2,34.1,61.2,18,61.2z"/>
		</g>
	</g>
</g>
</svg>
