<?xml version="1.0" encoding="utf-8"?>
<!-- Generator: Adobe Illustrator 19.0.0, SVG Export Plug-In . SVG Version: 6.00 Build 0)  -->
<svg version="1.1" id="Layer_1" xmlns="http://www.w3.org/2000/svg" xmlns:xlink="http://www.w3.org/1999/xlink" x="0px" y="0px"
	 viewBox="0 0 84.3 84.3" style="enable-background:new 0 0 84.3 84.3;" xml:space="preserve">
<style type="text/css">
	.st0{fill:#4E4E50;}
</style>
<g>
	<path class="st0" d="M0.7-0.5v84.3H85V-0.5H0.7z M77.3,76.1H8.4V7.2h68.9V76.1z"/>
	<g id="K8bsgh.tif">
		<g>
			<path class="st0" d="M28.8,43.5c0-3.3,0-6.6,0-9.8c0.1-0.1,0.2,0,0.3,0c2.2,0,4.4,0,6.6,0c0.2,0,0.3-0.1,0.3-0.3
				c0-2.6,0-5.3,0-7.9c0-1,0.1-1.9,0.3-2.9c0.6-2.9,2.1-5.4,4.5-7.2c2.1-1.5,4.4-2.2,6.9-2.5c0.6-0.1,1.1-0.1,1.7-0.1
				c0.5,0,1.1,0,1.6,0c0.1,0,0.1,0,0.2,0c1.8,0,3.6,0.1,5.4,0.3c0.2,0,0.3,0.1,0.3,0.3c-0.1,2.9-0.2,5.9-0.2,8.8
				c0,0.2-0.1,0.2-0.2,0.2c-2,0-4,0-6,0c-0.5,0-1,0-1.5,0.1c-1.2,0.2-2.1,0.8-2.4,2.1c-0.2,0.6-0.2,1.3-0.2,1.9c0,2.3,0,4.6,0,6.8
				c0,0.3-0.1,0.3,0.3,0.3c3.3,0,6.7,0,10,0c0.2,0,0.3,0,0.2,0.2c0,0.5,0,0.9-0.1,1.4c-0.1,2.7-0.3,5.3-0.4,8c0,0.2-0.1,0.3-0.3,0.3
				c-3.2,0-6.3,0-9.5,0c-0.4,0-0.4,0-0.4,0.3c0,8.8,0,17.6,0,26.5c0,0.2-0.1,0.3-0.3,0.3c-3.3,0-6.6,0-9.9,0c-0.3,0-0.3,0-0.3-0.3
				c0-8.8,0-17.7,0-26.5c0-0.2-0.1-0.3-0.3-0.3C33.4,43.5,31.1,43.5,28.8,43.5z"/>
		</g>
	</g>
</g>
</svg>
