<?xml version="1.0" encoding="utf-8"?>
<!-- Generator: Adobe Illustrator 19.0.0, SVG Export Plug-In . SVG Version: 6.00 Build 0)  -->
<svg version="1.1" id="Layer_1" xmlns="http://www.w3.org/2000/svg" xmlns:xlink="http://www.w3.org/1999/xlink" x="0px" y="0px"
	 viewBox="0 0 500 200" style="enable-background:new 0 0 500 200;" xml:space="preserve">
<style type="text/css">
	.st0{fill:#EA2327;}
	.st1{fill:#414142;}
	.st2{fill:#DC1F27;}
</style>
<g>
	<g>
		<path class="st0" d="M170.3,29.9L92.2,5.3l8.6,95.2l94.8,8.2L170.3,29.9z M121.3,79.9l-4.5-48.6l41,11.5l12.4,42.9L121.3,79.9z"/>
		<polygon id="XMLID_27_" class="st1" points="144.8,104.3 163.4,171.9 33.7,167.3 28.8,37.4 96.8,55.5 94.8,33.5 8.1,5.3 
			8.1,192.9 195.7,192.9 166.7,106.2 		"/>
	</g>
	<g>
		<g>
			<path class="st1" d="M274.1,112.1c0,3.1-0.5,6-1.4,8.8c-0.9,2.7-2.3,5.1-4,7.1c-1.7,2-3.9,3.6-6.4,4.8c-2.5,1.2-5.4,1.7-8.6,1.7
				c-3.2,0-6.1-0.6-8.6-1.7c-2.5-1.2-4.7-2.7-6.4-4.8c-1.7-2-3.1-4.4-4-7.1c-0.9-2.7-1.4-5.6-1.4-8.8s0.5-6,1.4-8.8
				c0.9-2.7,2.3-5.1,4-7.1c1.7-2,3.9-3.6,6.4-4.8c2.5-1.2,5.4-1.7,8.6-1.7c3.2,0,6.1,0.6,8.6,1.7c2.5,1.2,4.7,2.7,6.4,4.8
				c1.7,2,3.1,4.4,4,7.1C273.6,106.1,274.1,109,274.1,112.1z M235.8,112.1c0,2.8,0.4,5.3,1.2,7.8c0.8,2.4,2,4.6,3.5,6.4
				c1.5,1.8,3.4,3.3,5.6,4.3c2.2,1.1,4.7,1.6,7.5,1.6c2.8,0,5.3-0.5,7.5-1.6c2.2-1.1,4-2.5,5.6-4.3c1.5-1.8,2.7-3.9,3.5-6.4
				c0.8-2.4,1.2-5,1.2-7.8c0-2.7-0.4-5.3-1.2-7.8c-0.8-2.4-2-4.6-3.5-6.4c-1.5-1.8-3.4-3.3-5.6-4.3c-2.2-1.1-4.7-1.6-7.5-1.6
				c-2.8,0-5.3,0.5-7.5,1.6c-2.2,1.1-4.1,2.5-5.6,4.3c-1.5,1.8-2.7,3.9-3.5,6.4C236.2,106.8,235.8,109.4,235.8,112.1z"/>
			<path class="st1" d="M303.8,133.4h-2.3v-6.6h-0.1c-0.4,1.2-1,2.2-1.7,3.1c-0.7,0.9-1.6,1.7-2.6,2.3c-1,0.6-2.1,1.1-3.2,1.4
				c-1.2,0.3-2.3,0.5-3.6,0.5c-1.8,0-3.3-0.2-4.6-0.7c-1.3-0.4-2.3-1-3.1-1.7c-0.8-0.7-1.4-1.5-1.9-2.4c-0.5-0.9-0.8-1.8-1-2.7
				c-0.2-0.9-0.3-1.8-0.4-2.7c0-0.9-0.1-1.6-0.1-2.2v-19h2.3v19.4c0,0.8,0.1,1.8,0.2,2.9c0.1,1.1,0.5,2.2,1.1,3.3
				c0.6,1.1,1.5,2,2.6,2.7c1.2,0.8,2.8,1.1,4.9,1.1c1.7,0,3.3-0.3,4.7-1c1.4-0.6,2.6-1.5,3.5-2.7c1-1.1,1.7-2.5,2.2-4.1
				c0.5-1.6,0.8-3.3,0.8-5.2v-16.6h2.3V133.4z"/>
			<path class="st1" d="M321.9,104.7h-6.7v21.5c0,1.2,0.1,2.2,0.4,2.9c0.3,0.7,0.7,1.3,1.3,1.6c0.6,0.4,1.3,0.6,2.1,0.7
				c0.8,0.1,1.8,0.1,2.9,0.1v2c-1.2,0.1-2.3,0.1-3.4,0c-1.1-0.1-2.1-0.4-2.9-0.9c-0.8-0.5-1.5-1.2-2-2.2c-0.5-1-0.7-2.4-0.6-4.1
				v-21.5h-5.7v-2h5.7v-9.6h2.3v9.6h6.7V104.7z"/>
			<path class="st1" d="M341.4,118.1c0-2.2,0.3-4.3,0.9-6.2c0.6-1.9,1.5-3.6,2.7-5.1c1.2-1.5,2.7-2.6,4.5-3.5
				c1.8-0.9,3.8-1.3,6.1-1.3s4.3,0.4,6.1,1.3c1.8,0.9,3.3,2,4.5,3.5c1.2,1.5,2.1,3.2,2.7,5.1c0.6,1.9,0.9,4,0.9,6.2
				c0,2.2-0.3,4.3-0.9,6.2c-0.6,2-1.5,3.7-2.7,5.1c-1.2,1.5-2.7,2.6-4.5,3.5c-1.8,0.9-3.8,1.3-6.1,1.3s-4.3-0.4-6.1-1.3
				c-1.8-0.9-3.3-2-4.5-3.5c-1.2-1.5-2.1-3.2-2.7-5.1C341.7,122.3,341.4,120.3,341.4,118.1z M343.7,118.1c0,1.8,0.3,3.6,0.8,5.3
				c0.5,1.7,1.3,3.2,2.3,4.5c1,1.3,2.2,2.4,3.7,3.1c1.5,0.8,3.2,1.2,5.1,1.2s3.6-0.4,5.1-1.2c1.5-0.8,2.7-1.8,3.7-3.1
				c1-1.3,1.8-2.8,2.3-4.5c0.5-1.7,0.8-3.5,0.8-5.3c0-1.8-0.3-3.6-0.8-5.3c-0.5-1.7-1.3-3.2-2.3-4.5c-1-1.3-2.2-2.4-3.7-3.1
				c-1.5-0.8-3.2-1.2-5.1-1.2s-3.6,0.4-5.1,1.2c-1.5,0.8-2.7,1.8-3.7,3.1c-1,1.3-1.8,2.8-2.3,4.5C344,114.5,343.7,116.3,343.7,118.1
				z"/>
			<path class="st1" d="M371.8,104.7v-2h5.5v-6.3c0-1.1,0.2-2,0.5-2.8c0.4-0.8,0.9-1.4,1.5-1.9c0.6-0.5,1.3-0.8,2.2-1.1
				c0.8-0.2,1.7-0.4,2.6-0.4c0.7,0,1.6,0.1,2.7,0.3v2c-1.1-0.2-2-0.3-2.7-0.3c-1.3,0-2.4,0.3-3.2,0.9c-0.9,0.6-1.3,1.7-1.3,3.4v6.2
				h6.4v2h-6.4v28.8h-2.3v-28.8H371.8z"/>
			<path class="st1" d="M417.8,104.7h-6.7v21.5c0,1.2,0.1,2.2,0.4,2.9c0.3,0.7,0.7,1.3,1.3,1.6c0.6,0.4,1.3,0.6,2.1,0.7
				c0.8,0.1,1.8,0.1,2.9,0.1v2c-1.2,0.1-2.3,0.1-3.4,0c-1.1-0.1-2.1-0.4-2.9-0.9c-0.8-0.5-1.5-1.2-2-2.2c-0.5-1-0.7-2.4-0.6-4.1
				v-21.5h-5.7v-2h5.7v-9.6h2.3v9.6h6.7V104.7z"/>
			<path class="st1" d="M424.3,90.8v18.5h0.1c0.4-1.2,1-2.2,1.7-3.1c0.7-0.9,1.6-1.7,2.6-2.3c1-0.6,2.1-1.1,3.2-1.4
				c1.2-0.3,2.3-0.5,3.6-0.5c1.8,0,3.3,0.2,4.6,0.7c1.3,0.4,2.3,1,3.1,1.7c0.8,0.7,1.4,1.5,1.9,2.4c0.5,0.9,0.8,1.8,1,2.7
				c0.2,0.9,0.3,1.8,0.4,2.7c0,0.9,0.1,1.6,0.1,2.2v19h-2.3V114c0-0.8-0.1-1.7-0.2-2.9c-0.1-1.2-0.5-2.3-1.1-3.3
				c-0.6-1.1-1.5-2-2.6-2.7c-1.2-0.8-2.8-1.1-4.9-1.1c-1.8,0-3.3,0.3-4.7,1c-1.4,0.6-2.5,1.5-3.5,2.7c-1,1.1-1.7,2.5-2.2,4.1
				c-0.5,1.6-0.8,3.3-0.8,5.2v16.6H422V90.8H424.3z"/>
			<path class="st1" d="M454.1,118.4v0.4c0,1.8,0.2,3.5,0.7,5.1c0.5,1.6,1.2,3.1,2.1,4.3c0.9,1.2,2.1,2.2,3.6,2.9
				c1.4,0.7,3.1,1.1,5,1.1c3.1,0,5.6-0.8,7.4-2.4c1.8-1.6,3.1-3.9,3.7-6.7h2.3c-0.7,3.6-2.2,6.3-4.4,8.3c-2.3,1.9-5.3,2.9-9,2.9
				c-2.3,0-4.3-0.4-6-1.2c-1.7-0.8-3.1-1.9-4.3-3.3c-1.1-1.4-2-3.1-2.6-5c-0.6-1.9-0.8-4-0.8-6.2c0-2.2,0.3-4.2,0.9-6.2
				c0.6-2,1.5-3.7,2.6-5.2c1.2-1.5,2.6-2.7,4.4-3.6c1.7-0.9,3.8-1.3,6.2-1.3c2.2,0,4.1,0.4,5.7,1.2c1.7,0.8,3.1,1.9,4.2,3.3
				c1.1,1.4,2,3,2.6,4.8c0.6,1.8,0.9,3.8,0.9,5.8c0,0.2,0,0.4,0,0.7c0,0.3,0,0.5,0,0.6H454.1z M476.9,116.4
				c-0.1-1.7-0.4-3.3-0.8-4.8c-0.5-1.5-1.2-2.8-2.1-3.9c-0.9-1.1-2.1-2-3.4-2.7c-1.3-0.7-2.9-1-4.6-1c-1.9,0-3.5,0.3-4.9,1
				c-1.4,0.7-2.6,1.6-3.6,2.8c-1,1.1-1.7,2.5-2.2,4c-0.5,1.5-0.8,3.1-1,4.7H476.9z"/>
		</g>
		<g>
			<path class="st1" d="M233.2,149.5h17.2c2.6,0,4.7,0.3,6.4,1c1.7,0.6,3.1,1.5,4.2,2.5c1,1,1.8,2.2,2.3,3.6c0.5,1.3,0.7,2.7,0.7,4
				c0,1.2-0.2,2.3-0.6,3.3c-0.4,1-1,2-1.7,2.7c-0.7,0.8-1.6,1.5-2.6,2c-1,0.5-2.2,0.9-3.4,1l0.1,0.1c0.3,0,0.9,0.1,2,0.4
				c1,0.3,2.1,0.8,3.3,1.6c1.1,0.8,2.2,1.9,3.1,3.2c0.9,1.4,1.4,3.1,1.4,5.3c0,2-0.4,3.7-1.1,5.1c-0.7,1.5-1.7,2.7-3,3.7
				c-1.3,1-2.9,1.8-4.7,2.3c-1.8,0.5-3.9,0.8-6.1,0.8h-17.2V149.5z M250.4,168.9c3.7,0,6.4-0.8,8.2-2.4s2.7-3.7,2.7-6.4
				c0-1.6-0.3-2.9-0.9-3.9c-0.6-1.1-1.4-1.9-2.4-2.6c-1-0.7-2.2-1.1-3.5-1.4c-1.3-0.3-2.7-0.4-4.1-0.4h-14.6v17.1H250.4z
				 M250.4,189.9c3.9,0,6.9-0.8,9.1-2.4c2.2-1.6,3.3-4,3.3-7.3c0-1.8-0.4-3.3-1.1-4.5c-0.8-1.2-1.7-2.1-2.9-2.8
				c-1.2-0.7-2.5-1.1-4-1.4c-1.5-0.3-2.9-0.4-4.3-0.4h-14.6v18.8H250.4z"/>
			<path class="st1" d="M269.3,176.8c0-2.2,0.3-4.3,0.9-6.2c0.6-1.9,1.5-3.6,2.7-5.1c1.2-1.5,2.7-2.6,4.5-3.5
				c1.8-0.9,3.8-1.3,6.1-1.3c2.3,0,4.3,0.4,6.1,1.3c1.8,0.9,3.3,2,4.5,3.5c1.2,1.5,2.1,3.2,2.7,5.1c0.6,1.9,0.9,4,0.9,6.2
				c0,2.2-0.3,4.3-0.9,6.2c-0.6,2-1.5,3.7-2.7,5.1c-1.2,1.5-2.7,2.6-4.5,3.5c-1.8,0.9-3.8,1.3-6.1,1.3c-2.3,0-4.3-0.4-6.1-1.3
				c-1.8-0.9-3.3-2-4.5-3.5c-1.2-1.5-2.1-3.2-2.7-5.1C269.6,181.1,269.3,179,269.3,176.8z M271.5,176.8c0,1.8,0.3,3.6,0.8,5.3
				c0.5,1.7,1.3,3.2,2.3,4.5c1,1.3,2.2,2.4,3.7,3.1c1.5,0.8,3.2,1.2,5.1,1.2c1.9,0,3.6-0.4,5.1-1.2c1.5-0.8,2.7-1.8,3.7-3.1
				c1-1.3,1.8-2.8,2.3-4.5c0.5-1.7,0.8-3.5,0.8-5.3c0-1.8-0.3-3.6-0.8-5.3c-0.5-1.7-1.3-3.2-2.3-4.5c-1-1.3-2.2-2.4-3.7-3.1
				c-1.5-0.8-3.2-1.2-5.1-1.2c-1.9,0-3.6,0.4-5.1,1.2c-1.5,0.8-2.7,1.8-3.7,3.1c-1,1.3-1.8,2.8-2.3,4.5
				C271.8,173.2,271.5,175,271.5,176.8z"/>
			<path class="st1" d="M310.7,176.1l-11.3-14.6h3.2l9.7,12.9l9.8-12.9h2.9l-11.2,14.6l12.2,16.1h-3.1l-10.6-14.4l-10.8,14.4h-2.9
				L310.7,176.1z"/>
			<g>
				<path class="st2" d="M346.2,149.5h3.8l16.8,39.8h0.1l16.6-39.8h3.8v42.7h-2.6v-39.5h-0.1l-16.4,39.5h-2.6L349,152.7h-0.1v39.5
					h-2.6V149.5z"/>
				<path class="st2" d="M395.3,177.1v0.4c0,1.8,0.2,3.5,0.7,5.1c0.5,1.6,1.2,3.1,2.1,4.3c0.9,1.2,2.1,2.2,3.6,2.9
					c1.4,0.7,3.1,1.1,5,1.1c3.1,0,5.6-0.8,7.4-2.4c1.8-1.6,3.1-3.9,3.7-6.7h2.3c-0.7,3.6-2.2,6.3-4.4,8.3c-2.3,1.9-5.3,2.9-9,2.9
					c-2.3,0-4.3-0.4-6-1.2c-1.7-0.8-3.1-1.9-4.3-3.3s-2-3.1-2.6-5c-0.6-1.9-0.8-4-0.8-6.2c0-2.2,0.3-4.2,0.9-6.2
					c0.6-2,1.5-3.7,2.6-5.2c1.2-1.5,2.6-2.7,4.4-3.6c1.7-0.9,3.8-1.3,6.2-1.3c2.2,0,4.1,0.4,5.7,1.2c1.7,0.8,3.1,1.9,4.2,3.3
					c1.1,1.4,2,3,2.6,4.8c0.6,1.8,0.9,3.8,0.9,5.8c0,0.2,0,0.4,0,0.7c0,0.3,0,0.5,0,0.6H395.3z M418.1,175.2
					c-0.1-1.7-0.4-3.3-0.8-4.8c-0.5-1.5-1.2-2.8-2.1-3.9c-0.9-1.1-2.1-2-3.4-2.7c-1.3-0.7-2.9-1-4.6-1c-1.9,0-3.5,0.3-4.9,1
					c-1.4,0.7-2.6,1.6-3.6,2.8c-1,1.1-1.7,2.5-2.2,4c-0.5,1.5-0.8,3.1-1,4.7H418.1z"/>
				<path class="st2" d="M449.6,185.6h-0.1c-1.3,2.4-2.9,4.3-4.8,5.5c-1.9,1.2-4.3,1.8-7,1.8c-2.3,0-4.3-0.4-6-1.3
					c-1.7-0.9-3.1-2.1-4.2-3.5c-1.1-1.5-1.9-3.2-2.4-5.1c-0.5-1.9-0.8-4-0.8-6.1c0-2.3,0.3-4.4,0.8-6.4c0.6-2,1.4-3.7,2.6-5.1
					c1.1-1.4,2.6-2.6,4.3-3.4c1.7-0.8,3.8-1.3,6.1-1.3c1.2,0,2.5,0.2,3.7,0.5c1.2,0.3,2.3,0.8,3.3,1.5c1,0.6,1.9,1.4,2.7,2.4
					c0.8,1,1.3,2,1.7,3.2h0.1v-18.8h2.3v42.7h-2.3V185.6z M438.1,191c2,0,3.7-0.4,5.1-1.2c1.4-0.8,2.6-1.9,3.6-3.2
					c0.9-1.3,1.6-2.8,2.1-4.5c0.5-1.7,0.7-3.4,0.7-5.2c0-1.8-0.2-3.5-0.7-5.2c-0.5-1.7-1.2-3.2-2.1-4.5c-0.9-1.3-2.1-2.4-3.6-3.2
					c-1.5-0.8-3.2-1.2-5.1-1.2c-2,0-3.8,0.4-5.2,1.2c-1.4,0.8-2.6,1.8-3.6,3.1c-0.9,1.3-1.6,2.8-2,4.5c-0.4,1.7-0.6,3.5-0.6,5.3
					c0,1.8,0.2,3.5,0.7,5.2c0.5,1.7,1.2,3.2,2.1,4.5s2.1,2.4,3.6,3.1C434.4,190.6,436.1,191,438.1,191z"/>
				<path class="st2" d="M459.7,155.7v-6.2h2.3v6.2H459.7z M459.7,192.2v-30.7h2.3v30.7H459.7z"/>
				<path class="st2" d="M489.8,186.1h-0.1c-0.4,0.9-0.9,1.8-1.6,2.6c-0.7,0.8-1.5,1.5-2.5,2.2c-1,0.6-2.1,1.1-3.3,1.5
					c-1.2,0.4-2.6,0.5-4.1,0.5c-3.3,0-5.8-0.7-7.6-2.1c-1.8-1.4-2.7-3.6-2.7-6.5c0-1.8,0.4-3.3,1.1-4.4c0.7-1.1,1.6-2,2.7-2.7
					c1.1-0.7,2.3-1.1,3.7-1.4c1.3-0.3,2.6-0.5,3.9-0.6l3.6-0.3c1.6-0.1,2.9-0.3,3.9-0.6c0.9-0.3,1.7-0.6,2.1-1.1
					c0.5-0.5,0.8-1,0.9-1.8c0.1-0.7,0.2-1.6,0.2-2.7c0-0.8-0.2-1.6-0.5-2.3c-0.3-0.7-0.8-1.4-1.5-1.9c-0.7-0.6-1.6-1-2.6-1.3
					c-1.1-0.3-2.4-0.5-4-0.5c-2.8,0-5,0.7-6.7,2c-1.7,1.4-2.6,3.4-2.8,6.2h-2.3c0.2-3.4,1.3-5.9,3.3-7.6c2-1.7,4.9-2.5,8.6-2.5
					c3.7,0,6.5,0.7,8.2,2.2c1.7,1.5,2.6,3.4,2.6,5.7v17.9c0,0.4,0,0.9,0,1.3c0,0.4,0.1,0.8,0.2,1.2c0.1,0.4,0.3,0.6,0.6,0.9
					c0.3,0.2,0.7,0.3,1.2,0.3c0.4,0,1-0.1,1.7-0.2v1.9c-0.6,0.2-1.2,0.2-1.9,0.2c-0.9,0-1.7-0.1-2.2-0.4c-0.5-0.2-1-0.6-1.2-1
					c-0.3-0.4-0.5-0.9-0.6-1.4c-0.1-0.5-0.2-1.1-0.2-1.8V186.1z M489.8,174.7c-0.6,0.7-1.4,1.1-2.6,1.4c-1.1,0.2-2.4,0.4-3.8,0.5
					l-3.9,0.4c-1.1,0.1-2.2,0.3-3.4,0.5c-1.1,0.2-2.1,0.6-3,1.1c-0.9,0.5-1.6,1.2-2.2,2.1c-0.6,0.9-0.8,2.1-0.8,3.5
					c0,2.3,0.7,4,2.2,5.1c1.4,1.1,3.4,1.6,6,1.6c2.6,0,4.7-0.5,6.2-1.4c1.5-0.9,2.7-2,3.5-3.2c0.8-1.2,1.3-2.4,1.5-3.5
					c0.2-1.1,0.3-1.9,0.3-2.3V174.7z"/>
			</g>
		</g>
	</g>
</g>
</svg>
