<?xml version="1.0" encoding="utf-8"?>
<!-- Generator: Adobe Illustrator 19.0.0, SVG Export Plug-In . SVG Version: 6.00 Build 0)  -->
<svg version="1.1" id="Layer_1" xmlns="http://www.w3.org/2000/svg" xmlns:xlink="http://www.w3.org/1999/xlink" x="0px" y="0px"
	 viewBox="0 0 300 500" style="enable-background:new 0 0 300 500;" xml:space="preserve">
<style type="text/css">
	.st0{fill:#414142;}
</style>
<g id="XMLID_5_">
	<path id="XMLID_3_" class="st0" d="M294.5,250.2l-0.3,0c0,0-2.9-0.4-5.4-2c-2.5-1.5-3.5-1.7-5.6-2.2c-0.5-0.1-1.2-0.3-2-0.4
		c-1.3-0.3-2.7-0.5-4.5-0.5c-0.8,0-1.6,0-2.3,0.1c-0.7,0-1.4,0-2.1,0c-0.8,0-1.5,0-2.1-0.1c-2.6-0.3-4.9-3.1-7.2-6.1
		c-1-1.4-2.3-2-3.7-2c-1.5,0-2.9,0.8-3.6,1.3c-0.2,0.1-0.4,0.2-0.6,0.3c-0.9,0.4-1.6,1.2-2.2,1.8c-4.7-3.2-15.2-12.8-17.9-17.6
		c-0.3-0.5-0.5-0.9-0.8-1.4c-0.2-0.3-0.4-0.7-0.6-1l-0.3-0.5c-2.4-4.2-4.9-8.5-4.9-12.9c0-0.9,0-1.8,0-2.8c0-2.4,0-5.1,0-7.8
		c0.1-2.3-0.2-4.7-0.2-6.8c-0.1-1.4-0.2-2.7-0.2-3.9v-16c0-0.6,0.2-1.2,0.3-1.9c0.1-0.7,0.3-1.4,0.3-2.2c-0.1-4.9,0.1-10.5,2.1-18
		c1.3-4.9,1.9-7.8,2.6-11.5c0.6-3.2,1.3-6.8,2.6-12.8c1.3-5.6,2.6-9.8,3.8-13.9c1.7-5.4,3.4-11,5.1-19.9c1.9-9.8-0.3-13.2-2.7-16.7
		c-1.4-2-2.8-4.1-3.2-8c-0.8-6.8-3.2-10.3-6.7-15.2c-2.3-3.2-4.8-6.9-7.7-12.5c-5-10-10.1-11-15.5-12.1c-2.6-0.5-5.3-1.1-8.1-2.8
		c-3.3-2-4.8-3.6-6-5c-2.2-2.4-3.9-4.3-11.6-5.8c-2.7-0.5-5.1-0.8-7.4-0.8c-2,0-3.6,0.2-5.1,0.4c-1.4,0.2-2.7,0.3-4.2,0.3
		c-2.1,0-4.3-0.3-6.9-1.1c-9.7-2.7-17-3-28-3.4l-0.3,0c-1.3-0.1-2.6-0.1-4-0.2c-1,0-2-0.1-3-0.1c-8.6,0-15.4,1.6-22.6,3.3
		c-3.1,0.7-6.2,1.5-9.6,2.1c-7.1,1.4-12.8,4.5-18.4,7.6c-4.4,2.4-8.5,4.7-13.1,6c-7.4,2.1-13.8,7.8-20.6,13.8
		c-3.4,3-6.9,6.2-10.7,8.9c-7,5.2-8.8,10.3-10.3,14.8c-1,2.8-1.8,5.3-4,7.2c-4.3,3.9-5.5,10.9-6.6,18.4c-0.6,3.6-1.2,7.3-2.1,10.8
		c-2.2,7.9-1,13.3-0.1,17.3c0.3,1.5,0.6,2.8,0.6,3.9c0,1.9,0.6,3.4,1.6,4.3c0.9,0.7,1.8,0.9,2.4,0.9c1,0.7,4.3,2.9,5.6,4.7
		c1,1.4,1,3.1,0.9,5.6l0,0.1c0,0.2,0,0.4,0,0.7c0,0.5-0.1,1.1-0.1,1.6c0,2.5,1.3,6.8,2.6,10.9c0.7,2.1,1.1,3.8,1.3,4.8
		c0.5,2.4,0.3,8.4,0.3,10.2l0,18.8c0,0.2,0,0.4,0,0.6c0,0.6-0.2,1.4-0.2,2.3c-0.1,1.5-0.3,3.2-0.3,4.6v0.8c0,4.5,2.1,7.7,5.9,10
		c1.9,1.1,2.4,3.3,2.4,4.9c0,2,0.5,13.2,1.9,18.2c0.5,1.9,1.1,4.8,1.6,8c0.9,5,1.8,10.1,2.9,12.7c1,2.2,3.1,5.4,5.2,8.5
		c1.8,2.7,3.5,5.2,4.1,6.6c1.5,3.4,15,21.4,18.5,25.3c2.3,2.6,4.8,10.4,6.8,16.7c0.9,2.7,1.6,5.1,2.3,6.8c2.1,5.4,7.5,14.6,14,18.1
		c5.3,2.8,11.9,3.4,16.4,3.4c1.3,0,2.7-0.1,3.9-0.1c2.7-0.2,6.6-1.5,10.2-2.8c-0.2,0.2-0.5,0.4-0.7,0.7c-3.5,3.5-8.7,8.7-14.4,11.5
		c-5.5,2.8-10.4,8-14.6,15.8l-0.3,0.4l0.1,0.1c-1.7,3.1-3.2,6.7-4.7,10.6c-1.1,2.9-2.8,6.7-4.9,11.1c-4.4,9.4-9.8,21.2-13,33.2
		c-1.1,4-2.1,9.7-3,17.1c-8.1,1.3-41.9,6.9-47.4,7.9c-2.6,0.5-4.2,1.6-5,3.4c-0.9,1.9-0.5,4.6,1.1,7c1.9,3.1,19.3,32.4,19.5,32.7
		l1.2-0.6l-14.2-33.6l4,1.6l6-6.4l34.6-10.2c-1.2,9.5-2.2,21.5-3,35.7c0,0.8-0.1,1.3-0.1,1.4l1.3,0.2c0-0.3,7.1-39.3,11.4-55.2
		c4.8-17.6,11.1-35.1,14.4-44c1.5-3.9,3-7.4,4.7-10.5c3.1-3.9,10.5-6.7,18.2-6.7c3.4,0,6.6,0.5,9.6,1.5c2.4,0.8,5.4,1.8,8.8,2.9
		c4.2,1.4,8.9,2.6,13.9,3.9c10.3,2.7,21,5.6,30.1,10.2c15.1,7.8,27.4,20.3,34,27c0.8,0.8,1.6,1.6,2.2,2.3l1.7,1.7l-0.7-2.5l-0.1-0.1
		c-0.1-0.1-0.2-0.2-0.5-0.5c-7.8-8.7-22.8-24.1-35.3-30.5c-13.7-7-31.4-12.8-44.4-17c-3.4-1.1-6.3-2.1-8.7-2.9
		c-2.5-0.9-5.2-1.3-8.1-1.3c-5.6,0-11.1,1.7-15.5,4c2.5-3,5.2-5.3,8.1-6.7c6.2-3.1,11.6-8.5,15.2-12.1c1.4-1.4,2.6-2.6,3.2-2.9
		c2.1-1.3,3.8-3.2,4.3-3.8c1.5-1.1,3-2.2,4.5-3.3c4.2-3,8.5-6,11.1-9.4c1.6-2,1.9-3.7,2.1-5.3c0.3-2.3,0.7-5.1,5.8-11
		c8.8-10.1,11.7-13.5,23.9-21.3c12-7.7,19-11.8,26.1-13.9l6.3-1.8l-6.5,0.6l-0.3,0c-7.1,2.1-14.4,4.2-27.3,12.5
		c-12.6,8.1-15.9,11.9-24.6,21.9c-5.7,6.6-6.2,9.9-6.6,12.6c-0.2,1.5-0.3,2.4-1.4,3.8c-2.4,3-6.5,5.9-10.5,8.8
		c-0.7,0.5-1.4,1-2.1,1.5c-5.7-26.1-19.7-40.3-19.7-40.3l-0.5,0.2l0.4,0.6c13.4,22.8,16.6,36.1,17.4,41.3c0,0,0,0,0,0
		c-3.5,1.6-13.1,5.7-17.5,6c-0.8,0.1-2.2,0.1-3.7,0.1c-4.2,0-10.2-0.5-14.9-3.1c-5.1-2.8-10.3-10.6-12.6-16.5
		c-0.6-1.6-1.4-4.1-2.2-6.7c-0.8-2.6-1.4-5.4-1.9-8.1c-0.9-4.5-1.7-8.4-3.4-10.4l-0.9-1c-4.4-5-17.9-20.1-19-22.7
		c-0.7-1.6-2.5-4.3-4.4-7.1c-2-3-4.1-6.1-5-8c-1-2.2-1.9-7.4-2.7-12c-0.5-3-1.1-6.2-1.7-8.2c-1.3-4.7-1.7-15.4-1.7-17.3
		c0-3.2-1.3-9.5-3.2-11.7c-2.3-2.6-4.6-5.5-4.6-7.5c0-0.2,0-0.3,0-0.5l0.1-0.3c0.1-1.2,0.2-2.3,0.2-3v-18.8l-0.1-0.2
		c0-3,0-8.3-0.5-10.8c-0.3-1.3-0.8-3.2-1.4-5.1c-1.1-3.5-2.5-8-2.5-10c0-0.8,0-1.5,0.1-2.2c0.1-2.6,0.2-5.3-1.5-7.6
		c-1.9-2.5-6.4-5.4-6.9-5.7l-0.5-0.3l-0.6,0.1c0,0-0.4,0-0.6-0.2c-0.3-0.3-0.5-0.9-0.5-1.9c0-1.4-0.3-2.8-0.7-4.5
		c-0.8-3.6-0.2-8.8,1.7-15.9c0.6-2.1,0.5-4.2,0.4-6.3c-0.1-1.6-0.1-3.2,0.1-4.7c1.1-6.9,2.1-13.4,5.6-16.6c0.6-0.6,1.3-1.1,2.1-1.8
		c2.5-2,5.2-4.3,6.1-6.7c1.4-4.1,3-8.7,9.3-13.3c2.2-1.6,3.2-3.3,4.3-5c0.9-1.4,1.7-2.8,3.2-4.1c6.5-5.8,12.7-11.3,19.4-13.1
		c1.7-0.5,3.6-0.8,5.6-1.1c3.7-0.6,7.5-1.3,10.5-2.9c2-1.1,3.8-2.6,5.5-4c2.9-2.4,5.6-4.7,9.7-5.5c3.5-0.7,6.7-1.4,9.8-2.1
		c2.5-0.6,4.5-0.8,6.7-0.8c1.8,0,3.6,0.2,5.6,0.4c2.1,0.2,4.6,0.5,7.8,0.6c1.5,0.1,2.9,0.1,4.3,0.2c0.7,0,1.5,0,2.3,0
		c3.5,0,7.1-0.3,10.6-0.6c3.4-0.3,6.9-0.6,10.1-0.6c3.5,0,6.5,0.3,9,1c1.9,0.5,3.6,1.1,5.1,1.7c2.6,0.9,4.6,1.6,6.6,1.6
		c0.3,0,0.6,0,0.9-0.1c1.1-0.1,2.1-0.5,3.2-1c1.6-0.6,3.2-1.3,5.5-1.3c0.8,0,1.6,0.1,2.4,0.2c6.7,1.3,7.9,2.7,9.9,4.9
		c1.4,1.5,3.1,3.4,6.7,5.6c3.3,2,6.3,2.6,9.1,3.1c5.1,1,9.1,1.8,13.4,10.4c2.9,5.8,5.7,9.8,7.9,12.9c3.2,4.5,5.5,7.8,6.1,13.8
		c0.5,4.7,2.2,7.2,3.7,9.4c2.1,3.1,3.9,5.8,2.2,14.4c-1,5.3-2.8,8.9-4.4,12.1c-1,2-2,4-2.6,6.1c-0.7,2.2-0.8,4.7-0.9,7.4
		c-0.1,2.6-0.3,5.3-0.9,8.1c-1.3,5.8-2,9.3-2.7,12.9c-0.3,1.7-1.4,3.2-2.5,4.9c-1.2,1.8-2.7,3.9-3.3,6.4c-2,7.5-1.9,13.5-1.8,18.9
		c0,0.9,0,1.8,0,2.7c0,0.4,0,0.8,0,1.3l0.7,16c0,1.5,0.6,3.1,1.2,4.8c0.7,1.9,1.4,3.9,1.3,5.8c-0.1,4-0.2,7.9-0.2,10.7
		c0,5.4,2.8,10.3,5.5,15c0.5,0.8,0.9,1.6,1.3,2.4c3.2,5.8,16.8,18.9,21.1,21.3l1.3,0.7l0.8-1.2c0.1-0.1,0.2-0.3,0.3-0.5
		c0.3-0.6,1-2,1.6-2.2c0.2-0.1,0.5-0.3,0.8-0.4c0.5-0.3,0.9-0.7,1.3-1c0.2-0.2,0.5-0.5,0.6-0.5c0,0,0.2,0,0.6,0.5
		c2.2,2.8,5.2,6.7,9.2,7.2c0.7,0.1,1.5,0.1,2.5,0.1c0.7,0,1.4,0,2.2-0.1c0.7,0,1.5-0.1,2.2-0.1c1.5,0,2.7,0.1,3.8,0.4
		c0.8,0.2,1.5,0.3,2.1,0.5c2,0.4,2.6,0.5,4.6,1.8c1.2,0.7,2.6,1.1,4.1,1.1c1.3,0,2.3-0.3,2.8-0.4l0.1,0l1.4,0.2L294.5,250.2z"/>
	<path id="XMLID_2_" class="st0" d="M49.5,145.9c0.7,0,1.3-0.1,1.9-0.1c1.7,0,2.6,0.2,2.9,0.7c0.3,0.5,0.9,0.8,1.6,1.1
		c0.6,0.3,1.2,0.6,1.5,1c2.2,2.5,5.2,6,6.5,10.8c1.3,4.5,1.9,9.2,2.3,12.7l0,0.1c0.2,1.9,0.4,3.3,0.7,4.4c0.3,1.5,1,3.2,1.8,5.4
		c0.6,1.7,1.3,3.5,1.7,5c0.2,0.9,0.5,1.8,0.8,2.6l0.1,0.4c0.4,1.2,0.7,2,0.7,4.8v0.1h4v-0.1c0-3.3-0.8-4.6-1.4-6.2l-0.3-0.1
		c-0.2-0.6-0.5-1.4-0.8-2.5c-0.4-1.7-1.2-3.5-1.8-5.2c-0.7-1.8-1.4-3.6-1.7-4.9c-0.2-0.9-0.4-2.5-0.6-4.2c-0.5-3.6-1.1-8.4-2.4-13.1
		c-1.5-5.4-4.9-9.4-7.2-12c-0.7-0.9-1.4-1.6-1.7-2.2c-1.2-1.8-4.6-3.8-8.2-3.8c-0.1,0-0.3,0-0.4,0c-2.8,0.1-5,1.5-6.2,3.9
		c-3.1,6,0.5,12.7,2.3,15.3c1.2,1.8,3.1,7.2,3.1,7.3l0.3,0.9l1-0.8l0.4-0.2l-0.2-0.4c0-0.1,0-0.3-0.1-0.5c-0.4-2.8-0.9-6.3-2-7.8
		c-0.1-0.2-0.3-0.4-0.4-0.6c-1.4-2-3.8-5.3-1.7-9.5C46.6,146.7,47.8,146,49.5,145.9z"/>
	<path id="XMLID_1_" class="st0" d="M64.8,201.8c0.7,1.6,1.4,3.1,1.7,4.4c0.1,0.4,0.2,1,0.3,1.6c0.6,2.9,1.2,6.2,3.1,7.3
		c0.5,0.3,0.9,0.4,1.5,0.4c0.3,0,0.5,0,0.8-0.1c3-0.8,5.5-4.5,5.5-8.2c0-2.9,0-7.4,2.4-10.9c3.1-4.7,4.8-10,4.6-14.6
		c0-0.7-0.1-1.4-0.1-2.1l0-0.2c-0.1-4.5-0.3-10.1-2.5-14.2l-0.3-0.6l-2.7,1.4l0.3,0.6c1.9,3.6,2,8.5,2.1,12.9c0,0.4,0.1,0.7,0.2,1.1
		c0.1,0.2,0.1,0.5,0.2,0.6c-3.5,1.1-3.7,4.7-3.8,8.2c-0.1,1.8-0.1,3.7-0.7,5.4c-1.4,4.3-2.8,9.1-2.8,12.4c0,2.3-1.5,4.7-3.1,5.2
		c-0.7-0.6-1.3-3.9-1.6-5.2c-0.1-0.6-0.2-1.2-0.3-1.7c-0.4-1.6-1.1-3.2-1.8-4.9c-0.7-1.5-1.1-3.3-1.7-5.2c-1-3.3-1-7-1-13V181h-4
		v1.4c0,6.3,0.5,10.4,1.6,14C63.3,198.4,64.1,200.2,64.8,201.8z"/>
</g>
</svg>
