<?xml version="1.0" encoding="utf-8"?>
<!-- Generator: Adobe Illustrator 19.0.0, SVG Export Plug-In . SVG Version: 6.00 Build 0)  -->
<svg version="1.1" id="Layer_1" xmlns="http://www.w3.org/2000/svg" xmlns:xlink="http://www.w3.org/1999/xlink" x="0px" y="0px"
	 viewBox="-74 -34.5 350 512.5" style="enable-background:new -74 -34.5 350 512.5;" xml:space="preserve">
<style type="text/css">
	.st0{fill:#414142;}
</style>
<g id="XMLID_5_">
	<rect id="XMLID_3_" x="45.9" y="353.8" class="st0" width="92.4" height="90.7"/>
	<path id="XMLID_6_" class="st0" d="M96.6-1.6c15.1,0.2,42.2,2.4,69.3,13.3c35.2,14.3,58,38.7,69,72.5c1.2,3.7,2.6,7.6,3.3,11.7
		c0.8,4.5,1.6,9.2,3.2,13.7c2.8,7.7,2.3,13.8-1.6,19.6c-3.6,5.4-3.3,11.8,0.7,17.1c3.9,5.1,7.4,10.5,10.8,15.8
		c3,4.7,6.1,9.5,9.6,14.1c6,8,4.1,17.1-2,18.7h-0.4c-4.8,0.5-8.7,2.6-10.8,5.9c-2.2,3.3-2.5,7.6-1.1,12.2c0.9,2.7-0.9,8.1-3.1,9.9
		c-3.3,2.6-2.5,5.2-1.3,6.9c2.6,3.6,1.9,7.7-1.7,10.4c-0.9,0.6-1.8,1.2-2.8,1.8c-1,0.6-2.1,1.3-3.2,2c-5.5,4-6.9,9.6-3.8,15.8
		c4.2,9.2-2.4,21.3-14.3,21.7l-12.4,0.6c-13.9,1.2-28.9,0.7-39.7,5.1c-19.4,7.9-29.5,26.2-29.5,41.1v3H56.2l-3.5-23.2
		c0-15.9-0.6-30.9,6.6-46.3c5.8-12.5,12.8-23.2,20.5-32c7.8-8.9,16.2-16.6,24.8-23.1c8.8-6.6,17.1-13.3,24.7-20
		c7.7-6.8,18.9-13.7,23.7-21.8c4.9-8.4,9.2-19.6,8.8-31.9c0-20.9-8.1-37.4-18.5-47.6c-10.4-10.1-29.2-14.6-47.6-14.6
		c-12.1,0-22.9,2.5-32.1,7.4c-8.7,4.7-16.2,11.3-22.1,19.7c-5.4,7.6-9.8,17.7-12.7,28.9c-2.3,9.2-3.8,14.5-4,26.4l-91.7,3.5
		c0.6-24.6,4.3-40.8,11.9-60.3c8.1-20.9,18.8-38.5,31.8-52C-9.6,30.1,7,18.6,26,10.7C45.9,2.2,74.6-1.8,94.2-1.8h2.3L96.6-1.6
		 M94.2-9c-21,0-49.6,4.7-69.3,12.9C5.3,12.1-11.4,23.4-25.3,38s-26.1,36-33.8,55.9c-7.6,19.8-10.3,41.3-10.7,68.3h97.3
		c0-12,1.3-24.5,4-34.8c2.7-10.4,6.7-20.1,12.2-27.8s12.6-14.3,21.2-18.9c8.6-4.6,18.9-7.1,30.8-7.1c17.6,0,31.5,4.8,41.4,14.5
		c9.9,9.7,14.9,24.7,14.9,45c0.4,11.9-1.7,21.8-6.3,29.8c-4.6,7.9-10.7,15.2-18.2,21.8c-7.5,6.6-15.7,13.2-24.5,19.9
		c-8.8,6.6-17.2,14.5-25.2,23.5c-7.9,9.1-15,20-21,32.8c-6,12.8-11,28.7-11,47.7v26.6h93v-9.8c0-31.1,48.4-41.1,77.9-41.1l-0.2-0.1
		c4.9-0.1,10.2-0.2,14.8-2.8c7.2-4.3,8.3-11.7,4.2-19c-0.7-1.3-1.6-2.6-2.2-3.9c-2.5-4.9-1.5-9,2.9-12.3c1.9-1.4,4.1-2.4,6-3.8
		c4.9-3.6,5.8-9.4,2.3-14.3c-1.1-1.5-0.3-2.2,0.7-3.1c6.2-4.9,6.4-5.6,4-12.9c-2.5-7.8,1.4-13.6,9.5-14.5c1.9-0.2,3.9-0.4,5.8-0.7
		c6.3-1.1,8.9-6.3,6.1-12c-0.8-1.6-1.8-3.2-2.9-4.6c-9.4-11.2-16.1-24.3-25-35.9c-3.2-4.2-3.6-9.2-0.6-13.8
		c4.7-7.1,4.7-14.2,1.9-22.1c-3-8.2-3.2-17-5.9-25.3C208.8-6.9,125.4-9.1,94.2-9L94.2-9z"/>
</g>
</svg>
