<?xml version="1.0" encoding="utf-8"?>
<!-- Generator: Adobe Illustrator 19.0.0, SVG Export Plug-In . SVG Version: 6.00 Build 0)  -->
<svg version="1.1" id="Layer_1" xmlns="http://www.w3.org/2000/svg" xmlns:xlink="http://www.w3.org/1999/xlink" x="0px" y="0px"
	 viewBox="0 0 500 500" style="enable-background:new 0 0 500 500;" xml:space="preserve">
<style type="text/css">
	.st0{clip-path:url(#XMLID_19_);fill:url(#SVGID_1_);}
</style>
<g>
	<defs>
		<rect id="XMLID_1_" x="54.5" y="9.6" width="391.3" height="479.7"/>
	</defs>
	<clipPath id="XMLID_19_">
		<use xlink:href="#XMLID_1_"  style="overflow:visible;"/>
	</clipPath>
	
		<radialGradient id="SVGID_1_" cx="401.6224" cy="172.844" r="303.4386" gradientTransform="matrix(1 0 0 1 -267.9945 0)" gradientUnits="userSpaceOnUse">
		<stop  offset="0" style="stop-color:#801517"/>
		<stop  offset="0.315" style="stop-color:#ED2224"/>
		<stop  offset="0.6691" style="stop-color:#801517"/>
		<stop  offset="1" style="stop-color:#ED2224"/>
	</radialGradient>
	<path class="st0" d="M431.7,128.6c-6-4.9-8.7-7.1-14.2-10.9c-5.4-3.8-9.3-0.5-14.2,2.7c-4.9,3.3-20.7,19.6-20.7,19.6
		s-5.4,2.2-13.1,2.7c-7.6,0.5-16.9,9.8-31.1,14.2c-14.2,4.4-12.5,1.6-16.9-3.3s-10.9-7.1-15.8-16.9c-4.9-9.8-14.2-14.7-14.2-14.7
		s3.8-7.6,7.1-21.8c3.3-14.2,2.2-23.4,2.2-36c0-12.5,1.1-12.5,4.4-16.3c3.3-3.8,0-10.9-3.8-16.9c-3.8-6-7.6-10.9-13.1-15.8
		c-5.4-4.9-14.7-4.9-27.2-4.9c-12.5,0-25.1,6.5-34.3,12s-13.6,11.4-16.3,20.7c-2.7,9.3-9.8,29.4-13.6,33.8
		c-3.8,4.4-15.3,6.5-24.5,12.5c-9.3,6-5.4,12.5-9.8,16.3c-4.4,3.8-6.5,0.5-14.2,6.5c-7.6,6-4.4,13.6-14.2,13.1s-26.7,0-32.1,6.5
		c-5.4,6.5-1.6,16.3-1.6,20.7c0,4.4-5.4,7.6-5.4,7.6c-28.9,15.3-28.3,65.4-25.6,88.3c2.7,22.9-1.1,118.8,0.5,132.4
		c1.6,13.6-4.9,32.7-2.2,44.1c2.7,11.4,20.2,8.7,26.2,6c6-2.7,1.6,17.4,11.4,22.9c9.8,5.4,26.7,4.4,26.7,4.4
		c-27.2,0-36-32.7-15.8-47.4c13.8-10.1,17.4-39.2,11.4-64.3c0,0,13.1,23.4,13.1,37.1c0,13.6-1.1,19.1,7.1,25.6
		c8.2,6.5-4.4,7.6-14.2,1.6c-9.8-6,4.4,11.4,9.3,14.7s-4.9,11.4-18,6c-13.1-5.4,1.6,9.3,10.4,12c8.7,2.7,19.5,14.7-3.3,14.7
		c0,0-18.5,11.4-17.4,15.3c1.1,3.8,7.6,3.8,19.1,3.8c11.4,0,25.1-2.7,32.1-3.8c7.1-1.1,10.9,1.6,17.4,2.7c6.5,1.1,9.3,0,14.2-0.5
		c4.9-0.5,7.6,3.8,19.1,5.4c11.4,1.6,14.7-6,25.6-6c10.9,0,19.6-13.1,26.2-14.7c6.5-1.6,7.1,7.6,20.7,4.9c13.6-2.7,4.9-8.2-2.7-9.3
		c-7.6-1.1-11.4-4.4-17.4-10.9c-6-6.5-12-6-12-6s0-4.9,1.1-19.1c1.1-14.2-6-36.5-7.6-50.1s-8.2-15.3-2.7-34.9
		c5.4-19.6,4.4-33.2,1.1-41.4c-3.3-8.2-23.4-21.8-33.2-27.8c-9.8-6-9.8-10.4-5.4-10.4s7.1-3.3,2.2-13.6c-4.9-10.4-14.2-6-16.3-13.6
		c-2.2-7.6-4.9-9.3-7.6-15.8s-6.5-5.4-1.6-7.1c4.9-1.6,30.5-10.9,40.3-15.8c9.8-4.9,9.8-12,15.3-12c5.4,0,21.8,18,34.9,30
		c13.1,12,30.5,24.5,30.5,26.7c0,2.2-1.6,6-2.2,9.3c-0.5,3.3,7.6,5.4,19.1,0c11.4-5.4,9.8-12,25.1-28.3s20.7-40.9,23.4-49
		c2.7-8.2,9.8-9.8,17.4-15.3c7.6-5.4,0-4.9,2.7-7.1c2.7-2.2,10.9-2.7,16.9-3.3s16.9-2.7,16.9-5.4c0-2.7-16.3-2.7-16.9-4.4
		c-0.5-1.6,0-2.7,2.2-3.3S434.1,130.6,431.7,128.6z M234.2,143c3.8-0.8,3.3,2.1,1.5,3.3c-4.1,2.6-21.3,5.6-34.9,3.6
		C216,149.8,234.2,143,234.2,143z M109.1,154.2c-2.8,0.5-4.2-2.3-2.8-5.2c0,0,10.3-7,21.1-2.8c10.8,4.2,14.1,15,19.2,16.4
		c5.2,1.4,13.6,1.4,20.1,8.4s15,16.9,16.9,23c1.9,6.1-5.6,0-12.2,0s-4.7,1.4-2.3,6.6s8.9,9.8,9.8,17.8s-3.3,14.1-7,5.2
		s-11.2-12.6-15-15.9c-3.7-3.3,7-21.1,0.5-24.8s-9.4-2.3-16.4-10.3c-7-8-6.6-16.9-15.9-17.8C115.6,153.7,111.9,153.7,109.1,154.2z
		 M173.3,251.8c-7-3-25.7-22.1-35.1-41.1c13.4,19.2,37.9,36.3,37.9,36.3C180.5,251.1,176.3,253.1,173.3,251.8z M149.4,335.1
		c13.7,22.6,41.7,44.7,41.7,44.7c4.8,5.1-0.8,6.6-4.4,4.7C178.4,380.2,158,356.9,149.4,335.1z M206.6,366c4.3,4.1,0.2,6.1-2.8,4.8
		c-7-3-25.7-22.1-35.1-41.1C182.2,348.8,206.6,366,206.6,366z M174.8,314.9c18.9,16.8,48.9,28.7,48.9,28.7c5.6,3.3,1.8,6.4-1.7,5.8
		C213.9,347.9,189.4,332.5,174.8,314.9z M228.8,438.1c-8.5,12.1-33.9,21.4-58.9,25c0,0,33.9-16.1,48.4-31.1
		C232.8,417.1,237.3,426,228.8,438.1z M223.1,331.8c-11.7-2-47.4-24.4-68.7-50.1c27.5,24.4,71.2,41.7,71.2,41.7
		C233.8,328.1,228.2,332.6,223.1,331.8z M225.7,306.7c-43.8-15.2-90.3-50.7-98.6-64.9c-3.6-6.2-0.5-15.7,9.7-7.4
		C136.8,234.4,180.6,282.7,225.7,306.7z M231.3,176.7c-6.1,4.2-15,8.9-15,8.9s-17.8,7.5-20.1,9.4c-2.3,1.9-4.2-7-2.3-8
		c1.9-0.9,15.5-3.3,20.1-4.2c4.7-0.9,12.2-5.6,12.2-5.6s-6.1-1.9-18.3-2.3c-12.2-0.5-16.9-2.8-22-0.5s-8.9-2.8-5.6-5.6
		c0,0,14.1-3.3,21.5-1.9c7.5,1.4,16.9,4.2,20.6,4.2S237.4,172.4,231.3,176.7z M250.3,158.3c-7.5,3.2-36.5,3.4-58.3-3.6
		c25,3.9,56.7-2.2,56.7-2.2C255.2,152.2,253.6,156.9,250.3,158.3z M244.8,98c0,0,1.8-0.3,4.6-0.3l-8.7-4.5c0,0,21.5-7,30.9,1.9
		c9.4,8.9,13.6,17.3,16.4,22.5l-13.9-7.2c4.2,7.6,6.1,17.3,10.8,25.5c6.3,11,15.2,18.9,25,25.3c9.8,6.3,11.9,8.9,6.8,8.9
		s-12.9,0.7-21.5,2.1c-8.7,1.4-7,0.5-10.1,2.1c-3,1.6,3.3-9.4,8.2-10.3c4.9-0.9-11.9-4-20.1-16.1C265,135.7,266.1,96.6,244.8,98z
		 M321.8,226c-4.2,1.9-6.3-1.9-11.9-7.5c0,0,9.8,1.6,13.6,1.6C327.2,220.1,326,224.1,321.8,226z M326.2,213.4
		c-9.6,2.1-13.6-3.7-12.4-6.1c1.2-2.3-7.3,0.9-23.6-5.6c0,0,14.5,0.7,22-0.7c7.5-1.4,9.4,4,5.6,6.1c-3.7,2.1,6.8,2.1,12.2,0.2
		S335.8,211.2,326.2,213.4z M316.9,196c-4.2,0.2-14.5-1.2-21.3-3.7c0,0,13.6,0.5,24.6-3.5c0,0-19.6,1.9-48.4-8.2
		c0,0,18.9-0.5,37.2-3.3c18.2-2.8,27.6-1.9,25,4.9c-2.6,6.8,4.4,2.3,6.3,4.9C342.2,189.7,337.5,194.9,316.9,196z"/>
</g>
</svg>
