<?xml version="1.0" encoding="utf-8"?>
<!-- Generator: Adobe Illustrator 19.0.0, SVG Export Plug-In . SVG Version: 6.00 Build 0)  -->
<svg version="1.1" id="Layer_1" xmlns="http://www.w3.org/2000/svg" xmlns:xlink="http://www.w3.org/1999/xlink" x="0px" y="0px"
	 viewBox="-70.3 77.6 342.5 422.4" style="enable-background:new -70.3 77.6 342.5 422.4;" xml:space="preserve">
<style type="text/css">
	.st0{fill:#414142;}
	.st1{fill:#EA2327;}
</style>
<polygon id="XMLID_6_" class="st0" points="34.5,133.8 -69.8,77.6 -69.8,77.6 -70.2,77.6 -70.3,77.6 9.8,141.7 45,289.5 -10.8,500 
	-7.6,500 88.7,289.5 "/>
<path id="XMLID_3_" class="st0" d="M161.9,155.5c0.1,1.5,1.1,2.9,2.8,3.3l57.8,15.2c3.2,0.8,5.8-2.6,4.2-5.5l-1.5-2.5
	c0-0.5-0.2-0.9-0.5-1.4l-5.9-9.9c-0.4-1.9,0.7-3.9,2.6-4.4l48.1-13.2c2.1-0.6,3.3-2.9,2.5-4.9l-10.9-28.8c-0.4-1.1-1.3-1.9-2.4-2.2
	c-0.7-0.5-1.6-0.7-2.5-0.6c-0.4,0-0.9,0.2-1.3,0.4l-44.7,21.3c-0.4,0.2-0.9,0.3-1.3,0.4c-0.9,0.1-1.8-0.2-2.5-0.7
	c-0.3-0.4-0.5-0.9-0.6-1.5l-3-15c-0.6-3.2-4.9-4.1-6.7-1.4l-3.6,5.2l-30.7,42.1C160.9,152.8,161,154.4,161.9,155.5z M163.3,152.5
	l34.1-46.8c0.5-0.7,1.1-0.8,1.5-0.8c0.8-0.1,1.8,0.3,1.9,1.3l2.6,14c0.5,2.7,3,4.5,5.8,4.2c0.6-0.1,1.3-0.2,1.9-0.5l44.7-21.3
	c0.2-0.1,0.5-0.2,0.7-0.2c0.8-0.1,1.6,0.3,1.9,1l10.1,26.9c0.2,0.4,0.1,0.9-0.1,1.3c-0.3,0.5-0.7,0.9-1.3,1l-47.7,13.3
	c-1.7,0.5-3.1,1.7-3.7,3.3c-0.6,1.5-0.5,3.2,0.3,4.5l7.1,11.8c0.4,0.6,0.2,1.1,0,1.5c-0.3,0.6-0.9,1.1-1.6,1.1c-0.2,0-0.5,0-0.7,0
	L164.2,155c-0.6-0.1-1-0.5-1.2-1C162.8,153.5,162.9,153,163.3,152.5z"/>
<path id="XMLID_2_" class="st1" d="M125.7,224.8l48.1-13.5c2.3-0.7,3.4-3.4,2.2-5.5l-7.7-13.2c-1.7-2.8,0.9-6.3,4.1-5.5l57.6,14.6
	c2.5,0.6,3.6,3.5,2.2,5.7L198.9,257c-1.9,2.8-6.1,1.9-6.7-1.4l-2.8-14.5c-0.5-2.4-3.1-3.7-5.3-2.6l-44.8,22c-2,1-4.3,0-5.1-2
	l-10.9-28.8C122.5,227.6,123.6,225.4,125.7,224.8z"/>
</svg>
