<?xml version="1.0" encoding="utf-8"?>
<!-- Generator: Adobe Illustrator 19.0.0, SVG Export Plug-In . SVG Version: 6.00 Build 0)  -->
<svg version="1.1" id="Layer_1" xmlns="http://www.w3.org/2000/svg" xmlns:xlink="http://www.w3.org/1999/xlink" x="0px" y="0px"
	 viewBox="0 0 500 350" style="enable-background:new 0 0 500 350;" xml:space="preserve">
<style type="text/css">
	.st0{clip-path:url(#XMLID_22_);}
	.st1{fill:none;stroke:#010101;stroke-miterlimit:10;}
	.st2{fill:url(#XMLID_23_);stroke:#010101;stroke-miterlimit:10;}
	.st3{fill:#ED2224;}
</style>
<g id="XMLID_27_">
	<defs>
		<rect id="XMLID_6_" x="112.7" y="3" width="341.5" height="346"/>
	</defs>
	<clipPath id="XMLID_22_">
		<use xlink:href="#XMLID_6_"  style="overflow:visible;"/>
	</clipPath>
	<g id="XMLID_29_" class="st0">
		<polygon id="XMLID_19_" class="st1" points="384.1,20.9 249.1,15.2 190.1,38.9 124,199.8 190.4,351.3 329.6,380.1 404.6,344.8 
			447.1,227.5 445.9,49.5 		"/>
		<g id="XMLID_30_">
			<g id="XMLID_40_">
				<polygon id="XMLID_18_" class="st1" points="358.4,226.6 417.7,58.3 383,23.8 249.8,18 192.1,40.5 127.1,198.4 				"/>
				<polygon id="XMLID_17_" class="st1" points="420.7,57.5 361.1,226.7 443.4,227.5 443.4,51.4 388.5,25.6 				"/>
				<polygon id="XMLID_16_" class="st1" points="360.3,229.4 331.6,376.7 402.3,343 442.9,230.2 				"/>
				<polygon id="XMLID_15_" class="st1" points="357.7,229.2 127.2,201.1 192.1,348.9 328.9,376.9 				"/>
			</g>
			<path id="XMLID_14_" class="st1" d="M200.6,50.2l50-20.7l127.8,6.9l26.3,26.2c0,0-14,39.4-26.7,75.2s-44.1,74.8-99.5,68.1
				c-18.3-2.1-49-6.9-78.3-10.4c-29.3-3.5-48-32.1-30.3-72.9S200.6,50.2,200.6,50.2z"/>
			
				<linearGradient id="XMLID_23_" gradientUnits="userSpaceOnUse" x1="-2936.873" y1="33.5444" x2="-2757.0776" y2="156.3555" gradientTransform="matrix(-1 0 0 1 -2538.8887 0)">
				<stop  offset="0" style="stop-color:#B3B3B3"/>
				<stop  offset="1" style="stop-color:#FFFFFF"/>
			</linearGradient>
			<path id="XMLID_13_" class="st2" d="M200.6,50.2l50-20.7l127.8,6.9l26.3,26.2c0,0-14,39.4-26.7,75.2s-44.1,74.8-99.5,68.1
				c-18.3-2.1-49-6.9-78.3-10.4c-29.3-3.5-48-32.1-30.3-72.9S200.6,50.2,200.6,50.2z"/>
			<g id="XMLID_31_">
				<polygon id="XMLID_12_" class="st1" points="283.5,357.9 298.4,360.6 298.4,352.5 283.5,349.7 				"/>
				<polygon id="XMLID_11_" class="st1" points="262.5,354 277.4,356.7 277.4,348.6 262.5,345.9 				"/>
				<polygon id="XMLID_10_" class="st1" points="304.4,361.7 319.3,364.5 319.3,356.3 304.4,353.6 				"/>
				<polygon id="XMLID_9_" class="st1" points="241.6,350.1 256.4,352.9 256.4,344.8 241.6,342 				"/>
				<polygon id="XMLID_8_" class="st1" points="220.6,346.2 235.5,349 235.5,340.9 220.6,338.2 				"/>
				<polygon id="XMLID_7_" class="st1" points="199.7,342.4 214.5,345.1 214.5,337.1 199.7,334.3 				"/>
			</g>
		</g>
	</g>
</g>
<g id="XMLID_21_">
	<path id="XMLID_5_" class="st3" d="M256.6,112.6c-0.2,0-1.6,0.2-1.5,0.1c0.4-0.4,0.6-0.5,1.1-0.8c0.4-0.3,0.7,0,1.1,0.2
		c0.4,0.2,1.5,1.5,1.5,1.5s0.4,0.2,1,0.2c0.6,0,1.3,0.7,2.3,1.1c1.1,0.3,0.9,0.1,1.3-0.2s0.8-0.5,1.2-1.3s1.1-1.1,1.1-1.1
		s-0.3-0.6-0.5-1.6c-0.2-1.1-0.2-1.7-0.2-2.7c0-0.9-0.1-0.9-0.3-1.2s0-0.8,0.3-1.3c0.3-0.4,0.6-0.8,1-1.2c0.4-0.4,1.1-0.4,2-0.4
		c0.9,0,1.9,0.5,2.5,0.9c0.7,0.4,1,0.8,1.2,1.5c0.2,0.7,0.7,2.2,1,2.5c0.3,0.3,1.1,0.5,1.8,0.9c0.7,0.4,0.4,0.9,0.7,1.2
		c0.3,0.3,0.5,0,1.1,0.5c0.6,0.4,0.3,1,1.1,1c0.7,0,2,0,2.4,0.5c0.4,0.5,0.1,1.2,0.1,1.5c0,0.3,0.4,0.6,0.4,0.6
		c2.1,1.1,2.1,4.9,1.9,6.6c-0.2,1.7,0.1,8.8,0,9.8c-0.1,1,0.4,2.4,0.2,3.3c-0.2,0.8-1.5,0.6-1.9,0.4c-0.4-0.2-0.1,1.3-0.8,1.7
		c-0.7,0.4-2,0.3-2,0.3c2,0,2.7-2.4,1.2-3.5c-1-0.7-1.3-2.9-0.8-4.8c0,0-1,1.7-1,2.8c0,1,0.1,1.4-0.5,1.9c-0.6,0.5,0.3,0.6,1.1,0.1
		c0.7-0.4-0.3,0.8-0.7,1.1c-0.4,0.2,0.4,0.8,1.3,0.4c1-0.4-0.1,0.7-0.8,0.9c-0.6,0.2-1.4,1.1,0.2,1.1c0,0,1.4,0.8,1.3,1.1
		c-0.1,0.3-0.6,0.3-1.4,0.3s-1.9-0.2-2.4-0.3c-0.5-0.1-0.8,0.1-1.3,0.2c-0.5,0.1-0.7,0-1.1,0c-0.4,0-0.6,0.3-1.4,0.4
		c-0.8,0.1-1.1-0.4-1.9-0.4c-0.8,0-1.5-1-1.9-1.1c-0.5-0.1-0.5,0.6-1.5,0.4c-1-0.2-0.4-0.6,0.2-0.7c0.6-0.1,0.8-0.3,1.3-0.8
		c0.4-0.5,0.9-0.4,0.9-0.4s0-0.4-0.1-1.4c-0.1-1.1,0.4-2.7,0.6-3.7c0.1-1,0.6-1.1,0.2-2.6c-0.4-1.5-0.3-2.5-0.1-3.1s1.7-1.6,2.5-2.1
		c0.7-0.4,0.7-0.8,0.4-0.8s-0.5-0.2-0.2-1c0.4-0.8,1.1-0.4,1.2-1c0.2-0.6,0.4-0.7,0.6-1.2c0.2-0.5,0.5-0.4,0.1-0.5
		c-0.4-0.1-2.3-0.8-3-1.2c-0.7-0.4-0.7-0.9-1.1-0.9s-1.6,1.3-2.6,2.2c-1,0.9-2.3,1.8-2.3,2c0,0.2,0.1,0.4,0.2,0.7
		c0,0.2-0.6,0.4-1.4,0c-0.8-0.4-0.7-0.9-1.9-2.1c-1.1-1.2-1.5-3-1.7-3.6c-0.2-0.6-0.7-0.7-1.3-1.1s0-0.4-0.2-0.5
		c-0.2-0.2-0.8-0.2-1.3-0.2c-0.4,0-1.3-0.2-1.3-0.4c0-0.2,1.2-0.2,1.3-0.3C256.8,112.7,256.8,112.6,256.6,112.6z"/>
	<polygon id="XMLID_4_" class="st3" points="268.3,142.9 20.1,284.1 19,281.1 	"/>
	<polygon id="XMLID_3_" class="st3" points="268.3,104 20.1,144.6 19,141.6 	"/>
	<polygon id="XMLID_2_" class="st3" points="260,130.8 43.2,220.4 42.1,217.3 	"/>
	<polygon id="XMLID_1_" class="st3" points="252.8,116.2 56.1,176 55,173 	"/>
</g>
</svg>
