<?xml version="1.0" encoding="utf-8"?>
<!-- Generator: Adobe Illustrator 19.0.0, SVG Export Plug-In . SVG Version: 6.00 Build 0)  -->
<svg version="1.1" id="Layer_1" xmlns="http://www.w3.org/2000/svg" xmlns:xlink="http://www.w3.org/1999/xlink" x="0px" y="0px"
	 viewBox="0 0 500 500" style="enable-background:new 0 0 500 500;" xml:space="preserve">
<style type="text/css">
	.st0{clip-path:url(#XMLID_30_);}
	.st1{fill:none;stroke:#010101;stroke-miterlimit:10;}
	.st2{fill:url(#XMLID_31_);stroke:#010101;stroke-miterlimit:10;}
	.st3{fill:#ED2224;}
	.st4{opacity:0.8;fill:url(#XMLID_32_);}
	.st5{opacity:0.8;fill:url(#XMLID_33_);}
	.st6{fill:url(#XMLID_34_);}
	.st7{fill:url(#XMLID_35_);}
</style>
<g id="XMLID_28_">
	<g id="XMLID_43_">
		<defs>
			<rect id="XMLID_13_" x="6.7" y="29.7" width="466.8" height="470.2"/>
		</defs>
		<clipPath id="XMLID_30_">
			<use xlink:href="#XMLID_13_"  style="overflow:visible;"/>
		</clipPath>
		<g id="XMLID_45_" class="st0">
			<polygon id="XMLID_26_" class="st1" points="97.7,53.5 284.7,46 366.3,77.3 457.8,290.5 365.9,491.4 173.2,529.6 69.3,482.8 
				10.5,327.3 12.1,91.3 			"/>
			<g id="XMLID_46_">
				<g id="XMLID_56_">
					<polygon id="XMLID_25_" class="st1" points="133.2,326.1 51.2,103 99.3,57.3 283.6,49.7 363.5,79.5 453.5,288.7 					"/>
					<polygon id="XMLID_24_" class="st1" points="47,102 129.5,326.3 15.6,327.3 15.6,93.8 91.6,59.6 					"/>
					<polygon id="XMLID_23_" class="st1" points="130.6,329.9 170.4,525.1 72.5,480.5 16.3,330.9 					"/>
					<polygon id="XMLID_22_" class="st1" points="134.2,329.6 453.4,292.3 363.5,488.2 174.1,525.4 					"/>
				</g>
				<path id="XMLID_21_" class="st1" d="M351.7,92.3l-69.2-27.5l-177,9.2l-36.4,34.8c0,0,19.4,52.2,36.9,99.7s61.1,99.1,137.7,90.3
					c25.4-2.8,67.8-9.2,108.4-13.8s66.5-42.6,42-96.6C369.7,134.3,351.7,92.3,351.7,92.3z"/>
				
					<linearGradient id="XMLID_31_" gradientUnits="userSpaceOnUse" x1="-103.113" y1="66.2337" x2="143.1635" y2="234.4554" gradientTransform="matrix(1 0 0 1 183.3139 0)">
					<stop  offset="0" style="stop-color:#B3B3B3"/>
					<stop  offset="1" style="stop-color:#FFFFFF"/>
				</linearGradient>
				<path id="XMLID_20_" class="st2" d="M351.7,92.3l-69.2-27.5l-177,9.2l-36.4,34.8c0,0,19.4,52.2,36.9,99.7s61.1,99.1,137.7,90.3
					c25.4-2.8,67.8-9.2,108.4-13.8s66.5-42.6,42-96.6C369.7,134.3,351.7,92.3,351.7,92.3z"/>
				<g id="XMLID_47_">
					<polygon id="XMLID_19_" class="st1" points="237,500.1 216.4,503.8 216.4,493 237,489.4 					"/>
					<polygon id="XMLID_18_" class="st1" points="266,495 245.4,498.6 245.4,487.9 266,484.2 					"/>
					<polygon id="XMLID_17_" class="st1" points="208,505.3 187.4,508.9 187.4,498.1 208,494.5 					"/>
					<polygon id="XMLID_16_" class="st1" points="295,489.9 274.4,493.5 274.4,482.8 295,479.1 					"/>
					<polygon id="XMLID_15_" class="st1" points="324.1,484.7 303.4,488.4 303.4,477.7 324.1,474 					"/>
					<polygon id="XMLID_14_" class="st1" points="353.1,479.6 332.5,483.2 332.5,472.6 353.1,468.9 					"/>
				</g>
			</g>
		</g>
	</g>
	<g id="XMLID_29_">
		<g id="XMLID_36_">
			<polygon id="XMLID_12_" class="st3" points="379.4,254.9 468,182.8 379.4,132.7 291,182.8 			"/>
			
				<linearGradient id="XMLID_32_" gradientUnits="userSpaceOnUse" x1="252.7169" y1="108.0348" x2="96.1168" y2="184.0183" gradientTransform="matrix(1 0 0 1 183.3139 0)">
				<stop  offset="0" style="stop-color:#801517"/>
				<stop  offset="0.1469" style="stop-color:#931A1D"/>
				<stop  offset="1" style="stop-color:#ED2224"/>
			</linearGradient>
			<polygon id="XMLID_11_" class="st4" points="379.4,132.7 379.4,254.9 291,182.8 270.1,69.2 			"/>
			
				<linearGradient id="XMLID_33_" gradientUnits="userSpaceOnUse" x1="158.4085" y1="115.345" x2="286.2671" y2="179.9042" gradientTransform="matrix(1 0 0 1 183.3139 0)">
				<stop  offset="0" style="stop-color:#801517"/>
				<stop  offset="0.1469" style="stop-color:#931A1D"/>
				<stop  offset="1" style="stop-color:#ED2224"/>
			</linearGradient>
			<polygon id="XMLID_10_" class="st5" points="379.4,132.7 379.4,254.9 468,182.8 488.9,69.2 			"/>
			
				<linearGradient id="XMLID_34_" gradientUnits="userSpaceOnUse" x1="196.1882" y1="175.9658" x2="196.1882" y2="32.7151" gradientTransform="matrix(1 0 0 1 183.3139 0)">
				<stop  offset="0" style="stop-color:#801517"/>
				<stop  offset="0.1469" style="stop-color:#931A1D"/>
				<stop  offset="1" style="stop-color:#ED2224"/>
			</linearGradient>
			<polygon id="XMLID_9_" class="st6" points="379.4,132.7 488.9,69.2 379.4,30.2 270.1,69.2 			"/>
			
				<linearGradient id="XMLID_35_" gradientUnits="userSpaceOnUse" x1="138.3841" y1="65.1896" x2="270.475" y2="102.4349" gradientTransform="matrix(1 0 0 1 183.3139 0)">
				<stop  offset="0" style="stop-color:#801517"/>
				<stop  offset="0.1469" style="stop-color:#931A1D"/>
				<stop  offset="1" style="stop-color:#ED2224"/>
			</linearGradient>
			<polygon id="XMLID_8_" class="st7" points="379.4,132.7 488.9,69.2 379.4,30.2 			"/>
			<polygon id="XMLID_7_" class="st3" points="381.8,134.1 474.4,77.8 379.4,130.8 284.6,77.8 377.2,134.1 379.5,239.2 			"/>
		</g>
		<polygon id="XMLID_6_" class="st3" points="233.1,162.5 220.2,167.1 222.7,180.6 233.1,189.1 243.6,180.6 246,167.1 		"/>
		<polygon id="XMLID_5_" class="st3" points="220.2,167.1 260.7,90.1 261.2,93.4 		"/>
		<polygon id="XMLID_4_" class="st3" points="233.1,189.1 345.6,244 340.2,238.8 		"/>
		<polygon id="XMLID_3_" class="st3" points="243.6,180.6 277.2,181.6 276.5,179.7 		"/>
		<polygon id="XMLID_2_" class="st3" points="232.5,162.7 268,130.2 268,133 		"/>
		<polygon id="XMLID_1_" class="st3" points="246,167.1 274,156.8 274.3,159.3 		"/>
	</g>
</g>
</svg>
