<?xml version="1.0" encoding="utf-8"?>
<!-- Generator: Adobe Illustrator 19.0.0, SVG Export Plug-In . SVG Version: 6.00 Build 0)  -->
<svg version="1.1" id="Layer_1" xmlns="http://www.w3.org/2000/svg" xmlns:xlink="http://www.w3.org/1999/xlink" x="0px" y="0px"
	 viewBox="0 0 1038.9 124.2" style="enable-background:new 0 0 1038.9 124.2;" xml:space="preserve">
<style type="text/css">
	.st0{fill:#FFFFFF;}
	.st1{opacity:0.1;}
	.st2{fill:#EB2227;}
	.st3{fill:#414142;}
</style>
<g id="XMLID_33_">
	<rect id="XMLID_31_" x="0" y="0" class="st0" width="1038.9" height="124.2"/>
	<g id="XMLID_34_">
		<g id="XMLID_79_">
			<g id="XMLID_85_" class="st1">
				<path id="XMLID_87_" class="st2" d="M84.5,73l57.8-5l5.2-58L100,25L84.5,73z M100.1,58.9l7.5-26.1l25-7l-2.8,29.6L100.1,58.9z"
					/>
				<polygon id="XMLID_28_" class="st3" points="115.5,70.3 104.2,111.5 183.2,108.6 186.2,29.5 144.8,40.5 146,27.2 198.8,10 
					198.8,124.2 84.5,124.2 102.2,71.5 				"/>
			</g>
			<g id="XMLID_80_" class="st1">
				<path id="XMLID_82_" class="st2" d="M71.4,71.1l10.8-34.2l-41.7,3.8l-3.6,41.5L71.4,71.1z M49.5,49.6l21.3-2l-5,18L47,71
					L49.5,49.6z"/>
				<polygon id="XMLID_25_" class="st3" points="38.8,59.9 9.2,68 11.2,11.2 68.1,9.1 60.2,38.8 69.8,38 82.2,0 0,0 0,82.2 38,69.5 
									"/>
			</g>
		</g>
		<g id="XMLID_68_">
			<g id="XMLID_74_" class="st1">
				<path id="XMLID_76_" class="st2" d="M294.5,73l57.8-5l5.2-58L310,25L294.5,73z M310.1,58.9l7.5-26.1l25-7l-2.8,29.6L310.1,58.9z
					"/>
				<polygon id="XMLID_22_" class="st3" points="325.5,70.3 314.2,111.5 393.2,108.6 396.2,29.5 354.8,40.5 356,27.2 408.8,10 
					408.8,124.2 294.5,124.2 312.2,71.5 				"/>
			</g>
			<g id="XMLID_69_" class="st1">
				<path id="XMLID_71_" class="st2" d="M281.4,71.1l10.8-34.2l-41.7,3.8l-3.6,41.5L281.4,71.1z M259.5,49.6l21.3-2l-5,18L257,71
					L259.5,49.6z"/>
				<polygon id="XMLID_19_" class="st3" points="248.8,59.9 219.2,68 221.2,11.2 278.1,9.1 270.2,38.8 279.8,38 292.2,0 210,0 
					210,82.2 248,69.5 				"/>
			</g>
		</g>
		<g id="XMLID_57_">
			<g id="XMLID_63_" class="st1">
				<path id="XMLID_65_" class="st2" d="M504.6,73l57.8-5l5.2-58L520,25L504.6,73z M520.1,58.9l7.5-26.1l25-7l-2.8,29.6L520.1,58.9z
					"/>
				<polygon id="XMLID_16_" class="st3" points="535.6,70.3 524.2,111.5 603.3,108.6 606.2,29.5 564.8,40.5 566,27.2 618.8,10 
					618.8,124.2 504.6,124.2 522.2,71.5 				"/>
			</g>
			<g id="XMLID_58_" class="st1">
				<path id="XMLID_60_" class="st2" d="M491.4,71.1l10.8-34.2l-41.7,3.8l-3.6,41.5L491.4,71.1z M469.5,49.6l21.3-2l-5,18L467,71
					L469.5,49.6z"/>
				<polygon id="XMLID_13_" class="st3" points="458.8,59.9 429.2,68 431.3,11.2 488.2,9.1 480.2,38.8 489.8,38 502.2,0 420,0 
					420,82.2 458,69.5 				"/>
			</g>
		</g>
		<g id="XMLID_46_">
			<g id="XMLID_52_" class="st1">
				<path id="XMLID_54_" class="st2" d="M714.6,73l57.8-5l5.2-58L730,25L714.6,73z M730.1,58.9l7.5-26.1l25-7l-2.8,29.6L730.1,58.9z
					"/>
				<polygon id="XMLID_10_" class="st3" points="745.6,70.3 734.3,111.5 813.3,108.6 816.2,29.5 774.8,40.5 776,27.2 828.9,10 
					828.9,124.2 714.6,124.2 732.3,71.5 				"/>
			</g>
			<g id="XMLID_47_" class="st1">
				<path id="XMLID_49_" class="st2" d="M701.4,71.1l10.8-34.2l-41.7,3.8l-3.6,41.5L701.4,71.1z M679.6,49.6l21.3-2l-5,18L677,71
					L679.6,49.6z"/>
				<polygon id="XMLID_7_" class="st3" points="668.9,59.9 639.3,68 641.3,11.2 698.2,9.1 690.2,38.8 699.9,38 712.2,0 630.1,0 
					630.1,82.2 668,69.5 				"/>
			</g>
		</g>
		<g id="XMLID_35_">
			<g id="XMLID_41_" class="st1">
				<path id="XMLID_43_" class="st2" d="M924.6,73l57.8-5l5.2-58L940,25L924.6,73z M940.1,58.9l7.5-26.1l25-7l-2.8,29.6L940.1,58.9z
					"/>
				<polygon id="XMLID_4_" class="st3" points="955.6,70.3 944.3,111.5 1023.3,108.6 1026.2,29.5 984.8,40.5 986.1,27.2 1038.9,10 
					1038.9,124.2 924.6,124.2 942.3,71.5 				"/>
			</g>
			<g id="XMLID_36_" class="st1">
				<path id="XMLID_38_" class="st2" d="M911.5,71.1l10.8-34.2l-41.7,3.8l-3.6,41.5L911.5,71.1z M889.6,49.6l21.3-2l-5,18L887,71
					L889.6,49.6z"/>
				<polygon id="XMLID_1_" class="st3" points="878.9,59.9 849.3,68 851.3,11.2 908.2,9.1 900.3,38.8 909.9,38 922.2,0 840.1,0 
					840.1,82.2 878,69.5 				"/>
			</g>
		</g>
	</g>
</g>
</svg>
