<?xml version="1.0" encoding="utf-8"?>
<!-- Generator: Adobe Illustrator 19.0.0, SVG Export Plug-In . SVG Version: 6.00 Build 0)  -->
<svg version="1.1" id="Layer_1" xmlns="http://www.w3.org/2000/svg" xmlns:xlink="http://www.w3.org/1999/xlink" x="0px" y="0px"
	 viewBox="0 0 84.3 84.3" style="enable-background:new 0 0 84.3 84.3;" xml:space="preserve">
<style type="text/css">
	.st0{fill:#4E4E50;}
</style>
<g>
	<g id="_x38_jkDWR.tif_1_">
		<g>
			<path class="st0" d="M31.5,55c-0.5,0-0.9,0-1.2-0.1c-2.4-0.2-4.4-1.2-6.1-2.8c-1.5-1.4-2.6-3.1-3.4-5c0-0.1,0-0.1-0.1-0.2
				c1.7,0.3,3.4,0,5.1-0.3c-0.1,0-0.1-0.1-0.2-0.1c-1.7-0.6-3.3-1.4-4.7-2.5c-2.1-1.7-3.4-3.9-3.9-6.6c-0.2-0.8-0.3-1.6-0.3-2.4
				c0-0.1,0-0.2,0-0.3c1.4,0.7,2.9,1.4,4.5,1.5c0.2,0,0.4,0,0.7,0c-0.3-0.3-0.5-0.5-0.7-0.7c-1.2-1.2-2.3-2.5-3.1-4
				c-1.1-2.1-1.4-4.3-1.1-6.6c0.2-1.5,0.6-2.9,1.2-4.3c0-0.1,0.1-0.2,0.1-0.3c0.1,0.1,0.2,0.2,0.3,0.3c2.7,2.9,5.7,5.6,9.1,7.7
				c3.1,2,6.5,3.3,10.2,4c1.3,0.2,2.7,0.4,4.1,0.4c0.3,0,0.3,0,0.3-0.3c-0.2-2-0.2-4.1,0.4-6c0.9-3.1,2.9-5.3,5.7-6.9
				c1.9-1,3.8-1.5,6-1.4c2.9,0.2,5.3,1.3,7.3,3.4c0.2,0.2,0.3,0.2,0.6,0.2c2.4-0.3,4.6-1.3,6.7-2.5c0.1-0.1,0.2-0.1,0.3-0.2
				c0,0,0,0,0.1,0c-1,2.8-2.4,5.1-5,6.5c2.3-0.3,4.5-1,6.6-1.9c0,0.1-0.1,0.2-0.1,0.3c-1.4,2.3-3.2,4.4-5.6,5.8
				c-0.1,0.1-0.2,0.1-0.2,0.3c0.2,1.2,0.1,2.4,0,3.6c-0.6,7.3-3.2,13.9-7.6,19.8C55,56.4,52.2,59,49,61c-1.8,1.1-3.8,1.9-5.8,2.5
				c-3,1-6.1,1.4-9.3,1.6c-2.2,0.1-4.5,0-6.7-0.2c-3.9-0.4-7.6-1.4-10.9-3.5c-0.7-0.4-1.3-0.9-1.9-1.4c0,0,0-0.1-0.1-0.1
				C20.7,60.7,26.4,58.8,31.5,55z"/>
		</g>
	</g>
	<path class="st0" d="M0.4-0.5v84.3h84.3V-0.5H0.4z M77,76.1H8.1V7.2H77V76.1z"/>
</g>
</svg>
